<?xml version="1.0" standalone="no"?>
<!DOCTYPE svg PUBLIC "-//W3C//DTD SVG 20010904//EN"
 "http://www.w3.org/TR/2001/REC-SVG-20010904/DTD/svg10.dtd">
<svg version="1.0" xmlns="http://www.w3.org/2000/svg"
 width="220.000000pt" height="220.000000pt" viewBox="0 0 220.000000 220.000000"
 preserveAspectRatio="xMidYMid meet">
<metadata>
Created by potrace 1.11, written by Peter Selinger 2001-2013
</metadata>
<g transform="translate(0.000000,220.000000) scale(0.100000,-0.100000)"
fill="#000000" stroke="none">
<path d="M241 1377 c-129 -391 -236 -720 -239 -730 -4 -16 9 -17 209 -15 l213
3 40 137 41 138 240 0 241 0 40 -137 41 -138 77 -5 78 -5 -106 -143 -106 -143
0 -109 0 -110 595 0 595 0 0 160 0 160 -340 0 c-187 0 -340 2 -340 5 0 2 153
210 340 460 l340 456 0 109 0 110 -508 0 -508 0 -84 255 -84 255 -271 0 -270
0 -234 -713z m583 69 c36 -120 66 -223 66 -227 0 -5 -65 -9 -145 -9 -80 0
-145 3 -145 7 0 7 50 174 112 377 20 67 33 95 38 85 5 -8 38 -113 74 -233z
m866 -191 c0 -3 -62 -88 -138 -190 l-139 -184 -58 177 c-32 97 -60 183 -62
190 -4 9 39 12 196 12 111 0 201 -2 201 -5z"/>
</g>
</svg>
